{
  "accessors": [
    {
      "bufferView": 2,
      "componentType": 5126,
      "count": 3166,
      "max": [
        0.8446488380432129,
        0.8446488380432129,
        0.8446488380432129
      ],
      "min": [
        -0.8446488380432129,
        -0.8446488380432129,
        -0.8543609976768494
      ],
      "type": "VEC3"
    },
    {
      "bufferView": 2,
      "byteOffset": 37992,
      "componentType": 5126,
      "count": 3166,
      "max": [
        1.0,
        1.0,
        1.0
      ],
      "min": [
        -1.0,
        -1.0,
        -1.0
      ],
      "type": "VEC3"
    },
    {
      "bufferView": 1,
      "componentType": 5126,
      "count": 3166,
      "max": [
        0.3279999792575836,
        0.980951189994812
      ],
      "min": [
        0.023988086730241776,
        0.027923285961151123
      ],
      "type": "VEC2"
    },
    {
      "bufferView": 0,
      "componentType": 5125,
      "count": 14316,
      "type": "SCALAR"
    },
    {
      "bufferView": 2,
      "byteOffset": 75984,
      "componentType": 5126,
      "count": 1108,
      "max": [
        0.7953046560287476,
        0.3009912073612213,
        0.7672103643417358
      ],
      "min": [
        -0.792725682258606,
        -0.3422563970088959,
        0.2948427200317383
      ],
      "type": "VEC3"
    },
    {
      "bufferView": 2,
      "byteOffset": 89280,
      "componentType": 5126,
      "count": 1108,
      "max": [
        0.927337110042572,
        0.30555716156959534,
        0.892368495464325
      ],
      "min": [
        -0.9273366332054138,
        -0.3558944761753082,
        0.3710329234600067
      ],
      "type": "VEC3"
    },
    {
      "bufferView": 1,
      "byteOffset": 25328,
      "componentType": 5126,
      "count": 1108,
      "max": [
        0.9379344582557678,
        0.9379342794418335
      ],
      "min": [
        0.06206579878926277,
        0.06206566095352173
      ],
      "type": "VEC2"
    },
    {
      "bufferView": 0,
      "byteOffset": 57264,
      "componentType": 5125,
      "count": 5184,
      "type": "SCALAR"
    }
  ],
  "asset": {
    "extras": {
      "author": "Jeremy Edelblut (https://sketchfab.com/jeremy.toys)",
      "license": "CC-BY-SA-4.0 (http://creativecommons.org/licenses/by-sa/4.0/)",
      "source": "https://sketchfab.com/3d-models/3mojiorg-smiling-with-smiling-eyes-163e72116d4046a8bb5122b321785789",
      "title": "3moji.org : Smiling With Smiling Eyes"
    },
    "generator": "Sketchfab-13.19.0",
    "version": "2.0"
  },
  "bufferViews": [
    {
      "buffer": 0,
      "byteLength": 78000,
      "name": "floatBufferViews",
      "target": 34963
    },
    {
      "buffer": 0,
      "byteLength": 34192,
      "byteOffset": 78000,
      "byteStride": 8,
      "name": "floatBufferViews",
      "target": 34962
    },
    {
      "buffer": 0,
      "byteLength": 102576,
      "byteOffset": 112192,
      "byteStride": 12,
      "name": "floatBufferViews",
      "target": 34962
    }
  ],
  "buffers": [
    {
      "byteLength": 214768,
      "uri": "scene.bin"
    }
  ],
  "images": [
    {
      "uri": "textures/color_baseColor.png"
    },
    {
      "uri": "textures/cheeks_baseColor.png"
    }
  ],
  "materials": [
    {
      "doubleSided": true,
      "name": "color",
      "pbrMetallicRoughness": {
        "baseColorTexture": {
          "index": 0
        },
        "metallicFactor": 0.0,
        "roughnessFactor": 0.5
      }
    },
    {
      "alphaMode": "BLEND",
      "doubleSided": true,
      "name": "cheeks",
      "pbrMetallicRoughness": {
        "baseColorTexture": {
          "index": 1
        },
        "metallicFactor": 0.0,
        "roughnessFactor": 0.5
      }
    }
  ],
  "meshes": [
    {
      "name": "Object_0",
      "primitives": [
        {
          "attributes": {
            "NORMAL": 1,
            "POSITION": 0,
            "TEXCOORD_0": 2
          },
          "indices": 3,
          "material": 0,
          "mode": 4
        }
      ]
    },
    {
      "name": "Object_1",
      "primitives": [
        {
          "attributes": {
            "NORMAL": 5,
            "POSITION": 4,
            "TEXCOORD_0": 6
          },
          "indices": 7,
          "material": 1,
          "mode": 4
        }
      ]
    }
  ],
  "nodes": [
    {
      "children": [
        1
      ],
      "matrix": [
        1.0,
        0.0,
        0.0,
        0.0,
        0.0,
        2.220446049250313e-16,
        -1.0,
        0.0,
        0.0,
        1.0,
        2.220446049250313e-16,
        0.0,
        0.0,
        0.0,
        0.0,
        1.0
      ],
      "name": "Sketchfab_model"
    },
    {
      "children": [
        2
      ],
      "name": "root"
    },
    {
      "children": [
        3
      ],
      "matrix": [
        1.0,
        0.0,
        0.0,
        0.0,
        0.0,
        2.220446049250313e-16,
        1.0,
        0.0,
        0.0,
        -1.0,
        2.220446049250313e-16,
        0.0,
        0.0,
        0.0,
        0.0,
        1.0
      ],
      "name": "GLTF_SceneRootNode"
    },
    {
      "children": [
        4,
        5
      ],
      "name": "Smiling Face with Smiling Eyes_0"
    },
    {
      "mesh": 0,
      "name": "Object_4"
    },
    {
      "mesh": 1,
      "name": "Object_5"
    }
  ],
  "samplers": [
    {
      "magFilter": 9729,
      "minFilter": 9987,
      "wrapS": 10497,
      "wrapT": 10497
    }
  ],
  "scene": 0,
  "scenes": [
    {
      "name": "Sketchfab_Scene",
      "nodes": [
        0
      ]
    }
  ],
  "textures": [
    {
      "sampler": 0,
      "source": 0
    },
    {
      "sampler": 0,
      "source": 1
    }
  ]
}
